<mxfile host="app.diagrams.net" agent="Mozilla/5.0 (Windows NT 10.0; Win64; x64) AppleWebKit/537.36 (KHTML, like Gecko) Chrome/124.0.0.0 Safari/537.36 SLBrowser/9.0.6.8151 SLBChan/109 SLBVPV/64-bit" version="28.2.7">
  <diagram name="Page-1" id="b5b7bab2-c9e2-2cf4-8b2a-24fd1a2a6d21">
    <mxGraphModel dx="1137" dy="627" grid="1" gridSize="10" guides="1" tooltips="1" connect="1" arrows="1" fold="1" page="1" pageScale="1" pageWidth="827" pageHeight="1169" background="none" math="0" shadow="0">
      <root>
        <mxCell id="0" />
        <mxCell id="1" parent="0" />
        <mxCell id="nTpt1dK2uj8EyMaEbsRi-1" value="" style="shape=folder;fontStyle=1;spacingTop=10;tabWidth=80;tabHeight=20;tabPosition=left;html=1;whiteSpace=wrap;" vertex="1" parent="1">
          <mxGeometry x="40" y="40" width="210" height="140" as="geometry" />
        </mxCell>
        <mxCell id="nTpt1dK2uj8EyMaEbsRi-3" value="Frontend" style="text;html=1;whiteSpace=wrap;strokeColor=none;fillColor=none;align=center;verticalAlign=middle;rounded=0;" vertex="1" parent="1">
          <mxGeometry x="50" y="36" width="60" height="30" as="geometry" />
        </mxCell>
        <mxCell id="nTpt1dK2uj8EyMaEbsRi-5" value="" style="shape=folder;fontStyle=1;spacingTop=10;tabWidth=80;tabHeight=20;tabPosition=left;html=1;whiteSpace=wrap;" vertex="1" parent="1">
          <mxGeometry x="450" y="22" width="200" height="180" as="geometry" />
        </mxCell>
        <mxCell id="nTpt1dK2uj8EyMaEbsRi-6" value="Application" style="text;html=1;whiteSpace=wrap;strokeColor=none;fillColor=none;align=center;verticalAlign=middle;rounded=0;" vertex="1" parent="1">
          <mxGeometry x="460" y="18" width="60" height="30" as="geometry" />
        </mxCell>
        <mxCell id="nTpt1dK2uj8EyMaEbsRi-8" value="+UserInterface&lt;div&gt;+WebComponents&lt;/div&gt;&lt;div&gt;+MobileApp&lt;/div&gt;&lt;div&gt;-ThemeManager&lt;/div&gt;&lt;div&gt;-ResponsiveLayout&lt;/div&gt;" style="text;strokeColor=none;fillColor=none;align=left;verticalAlign=middle;spacingLeft=4;spacingRight=4;overflow=hidden;points=[[0,0.5],[1,0.5]];portConstraint=eastwest;rotatable=0;whiteSpace=wrap;html=1;" vertex="1" parent="1">
          <mxGeometry x="40" y="44" width="140" height="130" as="geometry" />
        </mxCell>
        <mxCell id="nTpt1dK2uj8EyMaEbsRi-9" value="+AuthenticationService&lt;div&gt;+UserService&lt;/div&gt;&lt;div&gt;+ProductService&lt;/div&gt;&lt;div&gt;+SearchService&lt;/div&gt;&lt;div&gt;+CartService&lt;/div&gt;&lt;div&gt;+OrdeService&lt;/div&gt;&lt;div&gt;+PaymentService&lt;/div&gt;&lt;div&gt;+NotificationService&lt;/div&gt;&lt;div&gt;-ServiceRegistry&lt;/div&gt;&lt;div&gt;#ServiceConfig&lt;/div&gt;" style="text;strokeColor=none;fillColor=none;align=left;verticalAlign=middle;spacingLeft=4;spacingRight=4;overflow=hidden;points=[[0,0.5],[1,0.5]];portConstraint=eastwest;rotatable=0;whiteSpace=wrap;html=1;" vertex="1" parent="1">
          <mxGeometry x="450" y="36" width="156" height="166" as="geometry" />
        </mxCell>
        <mxCell id="nTpt1dK2uj8EyMaEbsRi-13" value="" style="html=1;verticalAlign=bottom;endArrow=open;dashed=1;endSize=8;curved=0;rounded=0;" edge="1" parent="1">
          <mxGeometry relative="1" as="geometry">
            <mxPoint x="260" y="120" as="sourcePoint" />
            <mxPoint x="440" y="120" as="targetPoint" />
          </mxGeometry>
        </mxCell>
        <mxCell id="nTpt1dK2uj8EyMaEbsRi-15" value="" style="shape=folder;fontStyle=1;spacingTop=10;tabWidth=80;tabHeight=20;tabPosition=left;html=1;whiteSpace=wrap;" vertex="1" parent="1">
          <mxGeometry x="40" y="284" width="210" height="156" as="geometry" />
        </mxCell>
        <mxCell id="nTpt1dK2uj8EyMaEbsRi-16" value="Business" style="text;html=1;whiteSpace=wrap;strokeColor=none;fillColor=none;align=center;verticalAlign=middle;rounded=0;" vertex="1" parent="1">
          <mxGeometry x="50" y="280" width="60" height="30" as="geometry" />
        </mxCell>
        <mxCell id="nTpt1dK2uj8EyMaEbsRi-17" value="+CatalogManager&lt;div&gt;+InventoryManager&lt;/div&gt;&lt;div&gt;+PricingEngine&lt;/div&gt;&lt;div&gt;+PromotionEngine&lt;/div&gt;&lt;div&gt;+AnalyticsEngine&lt;/div&gt;&lt;div&gt;-BusinessRuleEngine&lt;/div&gt;&lt;div&gt;-WorkflowOrchestrator&lt;/div&gt;&lt;div&gt;#BaseBusinessService&lt;/div&gt;" style="text;strokeColor=none;fillColor=none;align=left;verticalAlign=middle;spacingLeft=4;spacingRight=4;overflow=hidden;points=[[0,0.5],[1,0.5]];portConstraint=eastwest;rotatable=0;whiteSpace=wrap;html=1;" vertex="1" parent="1">
          <mxGeometry x="40" y="300" width="140" height="130" as="geometry" />
        </mxCell>
        <mxCell id="nTpt1dK2uj8EyMaEbsRi-18" value="" style="html=1;verticalAlign=bottom;endArrow=open;dashed=1;endSize=8;curved=0;rounded=0;" edge="1" parent="1">
          <mxGeometry relative="1" as="geometry">
            <mxPoint x="440" y="210" as="sourcePoint" />
            <mxPoint x="260" y="310" as="targetPoint" />
          </mxGeometry>
        </mxCell>
        <mxCell id="nTpt1dK2uj8EyMaEbsRi-19" value="" style="shape=folder;fontStyle=1;spacingTop=10;tabWidth=80;tabHeight=20;tabPosition=left;html=1;whiteSpace=wrap;" vertex="1" parent="1">
          <mxGeometry x="440" y="286" width="210" height="156" as="geometry" />
        </mxCell>
        <mxCell id="nTpt1dK2uj8EyMaEbsRi-20" value="Data" style="text;html=1;whiteSpace=wrap;strokeColor=none;fillColor=none;align=center;verticalAlign=middle;rounded=0;" vertex="1" parent="1">
          <mxGeometry x="450" y="282" width="60" height="30" as="geometry" />
        </mxCell>
        <mxCell id="nTpt1dK2uj8EyMaEbsRi-21" value="+DataBase&lt;div&gt;+CasheService&lt;/div&gt;&lt;div&gt;+RepositoryLayer&lt;/div&gt;&lt;div&gt;-DatabaseConnectionPoo&lt;span style=&quot;background-color: transparent; color: light-dark(rgb(0, 0, 0), rgb(255, 255, 255));&quot;&gt;l&lt;/span&gt;&lt;/div&gt;&lt;div&gt;&lt;span style=&quot;background-color: transparent; color: light-dark(rgb(0, 0, 0), rgb(255, 255, 255));&quot;&gt;-CacheManager&lt;/span&gt;&lt;/div&gt;&lt;div&gt;&lt;span style=&quot;background-color: transparent; color: light-dark(rgb(0, 0, 0), rgb(255, 255, 255));&quot;&gt;-DataMigrationTool&lt;/span&gt;&lt;/div&gt;&lt;div&gt;&lt;span style=&quot;background-color: transparent; color: light-dark(rgb(0, 0, 0), rgb(255, 255, 255));&quot;&gt;#BaseRepository&lt;/span&gt;&lt;/div&gt;" style="text;strokeColor=none;fillColor=none;align=left;verticalAlign=middle;spacingLeft=4;spacingRight=4;overflow=hidden;points=[[0,0.5],[1,0.5]];portConstraint=eastwest;rotatable=0;whiteSpace=wrap;html=1;" vertex="1" parent="1">
          <mxGeometry x="440" y="302" width="180" height="130" as="geometry" />
        </mxCell>
        <mxCell id="nTpt1dK2uj8EyMaEbsRi-22" value="" style="html=1;verticalAlign=bottom;endArrow=open;dashed=1;endSize=8;curved=0;rounded=0;" edge="1" parent="1">
          <mxGeometry relative="1" as="geometry">
            <mxPoint x="260" y="360" as="sourcePoint" />
            <mxPoint x="430" y="360" as="targetPoint" />
          </mxGeometry>
        </mxCell>
        <mxCell id="nTpt1dK2uj8EyMaEbsRi-23" value="" style="html=1;verticalAlign=bottom;endArrow=open;dashed=1;endSize=8;curved=0;rounded=0;" edge="1" parent="1">
          <mxGeometry relative="1" as="geometry">
            <mxPoint x="560" y="210" as="sourcePoint" />
            <mxPoint x="560" y="280" as="targetPoint" />
          </mxGeometry>
        </mxCell>
        <mxCell id="nTpt1dK2uj8EyMaEbsRi-24" value="" style="shape=folder;fontStyle=1;spacingTop=10;tabWidth=80;tabHeight=20;tabPosition=left;html=1;whiteSpace=wrap;" vertex="1" parent="1">
          <mxGeometry x="760" y="204" width="210" height="156" as="geometry" />
        </mxCell>
        <mxCell id="nTpt1dK2uj8EyMaEbsRi-25" value="External" style="text;html=1;whiteSpace=wrap;strokeColor=none;fillColor=none;align=center;verticalAlign=middle;rounded=0;" vertex="1" parent="1">
          <mxGeometry x="770" y="200" width="60" height="30" as="geometry" />
        </mxCell>
        <mxCell id="nTpt1dK2uj8EyMaEbsRi-26" value="+PaymentGateway&lt;div&gt;+SMSService&lt;/div&gt;&lt;div&gt;+EmailService&lt;/div&gt;&lt;div&gt;+LoggingService&lt;/div&gt;&lt;div&gt;-ThirdPartySDK&lt;/div&gt;&lt;div&gt;-APIClient&lt;/div&gt;&lt;div&gt;#ExternalService&lt;/div&gt;" style="text;strokeColor=none;fillColor=none;align=left;verticalAlign=middle;spacingLeft=4;spacingRight=4;overflow=hidden;points=[[0,0.5],[1,0.5]];portConstraint=eastwest;rotatable=0;whiteSpace=wrap;html=1;" vertex="1" parent="1">
          <mxGeometry x="760" y="220" width="140" height="130" as="geometry" />
        </mxCell>
        <mxCell id="nTpt1dK2uj8EyMaEbsRi-28" value="" style="html=1;verticalAlign=bottom;endArrow=open;dashed=1;endSize=8;curved=0;rounded=0;" edge="1" parent="1">
          <mxGeometry relative="1" as="geometry">
            <mxPoint x="660" y="200" as="sourcePoint" />
            <mxPoint x="750" y="280" as="targetPoint" />
          </mxGeometry>
        </mxCell>
        <mxCell id="nTpt1dK2uj8EyMaEbsRi-29" value="" style="html=1;verticalAlign=bottom;endArrow=open;dashed=1;endSize=8;curved=0;rounded=0;" edge="1" parent="1">
          <mxGeometry relative="1" as="geometry">
            <mxPoint x="660" y="320" as="sourcePoint" />
            <mxPoint x="750" y="300" as="targetPoint" />
          </mxGeometry>
        </mxCell>
      </root>
    </mxGraphModel>
  </diagram>
</mxfile>
